<?xml version="1.0" encoding="UTF-8" standalone="no"?>
<!-- Created with Inkscape (http://www.inkscape.org/) -->

<svg
   width="218.08138mm"
   height="95mm"
   viewBox="0 0 218.08137 94.999989"
   version="1.1"
   id="svg5"
   inkscape:version="1.1.2 (0a00cf5339, 2022-02-04)"
   sodipodi:docname="DartScorer-Logo-V1.0-white.svg"
   xmlns:inkscape="http://www.inkscape.org/namespaces/inkscape"
   xmlns:sodipodi="http://sodipodi.sourceforge.net/DTD/sodipodi-0.dtd"
   xmlns="http://www.w3.org/2000/svg"
   xmlns:svg="http://www.w3.org/2000/svg">
  <sodipodi:namedview
     id="namedview7"
     pagecolor="#ffffff"
     bordercolor="#666666"
     borderopacity="1.0"
     inkscape:pageshadow="2"
     inkscape:pageopacity="0.0"
     inkscape:pagecheckerboard="false"
     inkscape:document-units="mm"
     showgrid="false"
     fit-margin-top="10"
     fit-margin-left="10"
     fit-margin-right="10"
     fit-margin-bottom="10"
     lock-margins="true"
     inkscape:zoom="1.0672418"
     inkscape:cx="354.18402"
     inkscape:cy="272.66547"
     inkscape:current-layer="layer1"
     showguides="true"
     inkscape:guide-bbox="true">
    <sodipodi:guide
       position="96.338338,80.435142"
       orientation="0,-1"
       id="guide1574" />
    <sodipodi:guide
       position="138.77969,50.636401"
       orientation="0,-1"
       id="guide1576" />
    <sodipodi:guide
       position="101.30862,45.258512"
       orientation="0,-1"
       id="guide1578" />
    <sodipodi:guide
       position="160.59998,14.936482"
       orientation="0,-1"
       id="guide1580" />
  </sodipodi:namedview>
  <defs
     id="defs2">
    <rect
       x="-72.758118"
       y="538.52789"
       width="978.36237"
       height="187.89706"
       id="rect7051" />
    <rect
       x="-72.758118"
       y="538.52789"
       width="978.36237"
       height="187.89706"
       id="rect7051-6" />
    <rect
       x="-72.758118"
       y="538.52789"
       width="978.36237"
       height="187.89706"
       id="rect7051-6-5" />
    <rect
       x="-72.758118"
       y="538.52789"
       width="978.36237"
       height="187.89706"
       id="rect7051-6-5-5" />
    <rect
       x="-72.758118"
       y="538.52789"
       width="978.36237"
       height="187.89706"
       id="rect7051-6-5-5-0" />
    <rect
       x="-72.758118"
       y="538.52789"
       width="1581.7672"
       height="190.6796"
       id="rect7051-6-5-5-0-8" />
    <rect
       x="-72.758118"
       y="538.52789"
       width="978.36237"
       height="187.89706"
       id="rect7051-2" />
    <rect
       x="-72.758118"
       y="538.52789"
       width="978.36237"
       height="187.89706"
       id="rect7051-6-3" />
    <rect
       x="-72.758118"
       y="538.52789"
       width="978.36237"
       height="187.89706"
       id="rect7051-6-5-7" />
    <rect
       x="-72.758118"
       y="538.52789"
       width="978.36237"
       height="187.89706"
       id="rect7051-6-5-5-5" />
    <rect
       x="-72.758118"
       y="538.52789"
       width="978.36237"
       height="187.89706"
       id="rect7051-6-5-5-0-9" />
    <rect
       x="-72.758118"
       y="538.52789"
       width="1581.7672"
       height="190.6796"
       id="rect7051-6-5-5-0-8-2" />
    <rect
       x="-72.758118"
       y="538.52789"
       width="1019.1011"
       height="416.71616"
       id="rect7051-65" />
    <rect
       x="-72.758118"
       y="538.52789"
       width="1019.1011"
       height="416.71616"
       id="rect7051-65-3" />
    <rect
       x="-72.758118"
       y="538.52789"
       width="1019.1011"
       height="416.71616"
       id="rect7051-65-2" />
    <rect
       x="-72.758118"
       y="538.52789"
       width="1019.1011"
       height="416.71616"
       id="rect7051-65-9" />
  </defs>
  <g
     inkscape:label="Ebene 1"
     inkscape:groupmode="layer"
     id="layer1"
     transform="translate(-12.512149,-954.62767)">
    <g
       id="g3769-2-9-3"
       transform="matrix(2.3584906,0,0,2.3584906,-84.688741,741.65602)"
       style="stroke-width:0.424001">
      <circle
         style="fill:#2fe501;fill-opacity:1;stroke-width:0.112359;stroke-linecap:round;stroke-linejoin:round;stroke-dashoffset:18.8976"
         id="path846-9-3-6"
         cx="61.353176"
         cy="110.43998"
         r="15.9" />
      <circle
         style="fill:#e50000;fill-opacity:1;stroke-width:0.112359;stroke-linecap:round;stroke-linejoin:round;stroke-dashoffset:18.8976"
         id="path846-3-1-74-0"
         cx="61.353176"
         cy="110.43998"
         r="6.3499999" />
    </g>
    <g
       id="g4394"
       style="fill:#ffffff;fill-opacity:1">
      <g
         id="g1564"
         transform="translate(6.3500003)"
         style="fill:#ffffff;fill-opacity:1">
        <path
           d="m 96.454001,998.99127 5.167969,-29.85935 8.77733,0.0205 q 3.87597,0 6.76757,2.05078 2.8916,2.03027 4.10156,5.55761 1.0459,3.09668 0.63574,6.68554 l -0.14355,1.25098 q -0.55371,4.01952 -2.66602,7.28026 -2.1123,3.26074 -5.43456,5.12695 -3.32226,1.8457 -7.17773,1.88672 z m 11.238269,-24.30173 -3.26074,18.76463 2.05078,0.0205 q 3.60937,0 5.7832,-2.78906 2.19433,-2.78906 2.60449,-8.53124 l 0.041,-0.67676 q 0.14356,-3.28124 -1.02539,-4.98339 -1.16894,-1.70215 -3.50683,-1.78418 z"
           style="font-style:italic;font-weight:900;font-size:158.74px;line-height:85%;font-family:Roboto;-inkscape-font-specification:'Roboto Heavy Italic';text-align:start;letter-spacing:0px;word-spacing:0px;white-space:pre;fill:#ffffff;stroke:none;stroke-width:0.264583px;fill-opacity:1"
           id="path1511" />
        <path
           d="m 135.19322,998.99127 q -0.28711,-0.79981 -0.28711,-2.00976 -2.27636,2.50195 -5.43456,2.41992 -2.8916,-0.041 -4.79883,-1.92774 -1.90722,-1.88671 -1.78417,-4.57324 0.10253,-3.60937 3.01464,-5.5371 2.91211,-1.94824 7.95702,-1.94824 l 2.25586,0.041 0.2461,-1.25098 0.082,-1.08691 q -0.082,-1.86621 -1.86621,-1.92773 -2.21484,-0.041 -2.72754,2.44042 l -6.76757,0.0205 q 0.10254,-2.23535 1.45605,-3.87598 1.35352,-1.66113 3.6709,-2.54296 2.33789,-0.90234 4.96288,-0.84082 2.52246,0.0615 4.40918,1.06641 1.90722,0.98437 2.85058,2.76855 0.94336,1.76367 0.71778,4.08105 l -1.66114,10.43846 -0.10254,1.27149 q -0.082,1.51757 0.38965,2.58398 l -0.0205,0.38965 z m -3.85546,-4.4707 q 2.07128,0.082 3.62988,-1.82519 l 0.67675,-3.56836 -1.74316,-0.0205 q -1.62012,0.041 -2.78906,0.96386 -1.16894,0.90235 -1.37402,2.48145 -0.10254,0.84082 0.30761,1.39452 0.43067,0.53321 1.292,0.57422 z"
           style="font-style:italic;font-weight:900;font-size:158.74px;line-height:85%;font-family:Roboto;-inkscape-font-specification:'Roboto Heavy Italic';text-align:start;letter-spacing:0px;word-spacing:0px;white-space:pre;fill:#ffffff;stroke:none;stroke-width:0.264583px;fill-opacity:1"
           id="path1513" />
        <path
           d="m 160.52035,983.05671 q -1.08692,-0.16406 -2.0918,-0.20507 -3.03515,-0.082 -4.63476,2.09179 l -2.50195,14.04784 h -6.74706 l 3.85546,-22.18943 6.29589,-0.0205 -0.51269,2.91211 q 2.17382,-3.36328 5.12695,-3.36328 0.84082,0 2.09179,0.28711 z"
           style="font-style:italic;font-weight:900;font-size:158.74px;line-height:85%;font-family:Roboto;-inkscape-font-specification:'Roboto Heavy Italic';text-align:start;letter-spacing:0px;word-spacing:0px;white-space:pre;fill:#ffffff;stroke:none;stroke-width:0.264583px;fill-opacity:1"
           id="path1515" />
        <path
           d="m 173.8299,971.28524 -0.96386,5.5166 h 3.54785 l -0.84082,4.79882 h -3.54785 l -1.72266,10.19238 q -0.14355,1.04589 0.12305,1.57909 0.28711,0.53321 1.39453,0.57422 0.43066,0.0205 1.76367,-0.10254 l -0.49219,5.00391 q -1.70214,0.55371 -3.62988,0.51269 -3.13769,-0.041 -4.69628,-1.8457 -1.55859,-1.80469 -1.27148,-4.90136 l 1.80468,-11.01269 h -2.74804 l 0.82031,-4.79882 h 2.74804 l 0.96387,-5.5166 z"
           style="font-style:italic;font-weight:900;font-size:158.74px;line-height:85%;font-family:Roboto;-inkscape-font-specification:'Roboto Heavy Italic';text-align:start;letter-spacing:0px;word-spacing:0px;white-space:pre;fill:#ffffff;stroke:none;stroke-width:0.264583px;fill-opacity:1"
           id="path1517" />
      </g>
      <g
         id="g1589"
         transform="translate(-0.28125347)"
         style="fill:#ffffff;fill-opacity:1">
        <g
           id="g1572"
           style="fill:#ffffff;fill-opacity:1">
          <path
             d="m 112.86024,1026.6112 q 0.45117,-2.3174 -2.50196,-3.5889 l -3.36327,-1.3945 q -7.075192,-3.1787 -6.72656,-8.6543 0.14356,-2.502 1.72266,-4.4502 1.5791,-1.9688 4.36816,-3.0557 2.78905,-1.0869 6.09081,-1.0459 4.42968,0.082 7.1162,2.584 2.70703,2.502 2.66602,6.7061 h -6.97265 q 0.0615,-1.7227 -0.73828,-2.7481 -0.7793,-1.0459 -2.58399,-1.0869 -1.76367,-0.041 -3.11718,0.8203 -1.35351,0.8613 -1.59961,2.3174 -0.38965,2.0508 3.03516,3.3633 3.4453,1.3125 5.0039,2.2558 4.90136,2.9327 4.59374,7.916 -0.16406,2.584 -1.66113,4.5323 -1.49707,1.9482 -4.16308,3.0146 -2.64551,1.0664 -5.94726,1.0254 -2.41992,-0.041 -4.49121,-0.7588 -2.07128,-0.7178 -3.54785,-2.0918 -2.994133,-2.7685 -2.871086,-7.2802 l 7.034176,0.021 q -0.12305,2.2968 0.88183,3.4863 1.00488,1.1689 3.38379,1.1689 1.76367,0 2.93261,-0.7998 1.18945,-0.8203 1.45606,-2.2558 z"
             style="font-style:italic;font-weight:900;font-size:158.74px;line-height:85%;font-family:Roboto;-inkscape-font-specification:'Roboto Heavy Italic';text-align:start;letter-spacing:0px;word-spacing:0px;white-space:pre;fill:#ffffff;stroke:none;stroke-width:0.264583px;fill-opacity:1"
             id="path1519" />
          <path
             d="m 132.13756,1029.7899 q 1.45605,0.041 2.27637,-0.7998 0.82031,-0.8614 1.04589,-2.2149 l 6.3164,-0.021 q -0.12304,2.4405 -1.45605,4.3682 -1.3125,1.9277 -3.56836,2.9941 -2.23535,1.0459 -4.79882,0.9844 -4.42968,-0.082 -6.82909,-3.1787 -2.39942,-3.1172 -1.94824,-8.0391 l 0.0615,-0.4922 q 0.36914,-3.3632 1.88672,-5.9472 1.51757,-2.6045 3.97851,-4.0195 2.48144,-1.4151 5.5371,-1.333 3.87597,0.082 6.11132,2.4814 2.25586,2.3789 2.17383,6.4394 l -6.3164,-0.021 q 0.10254,-3.5273 -2.52246,-3.5888 -3.56835,-0.1231 -4.10156,6.0088 l -0.18457,2.0918 -0.0205,0.7792 q 0,3.4454 2.3584,3.5069 z"
             style="font-style:italic;font-weight:900;font-size:158.74px;line-height:85%;font-family:Roboto;-inkscape-font-specification:'Roboto Heavy Italic';text-align:start;letter-spacing:0px;word-spacing:0px;white-space:pre;fill:#ffffff;stroke:none;stroke-width:0.264583px;fill-opacity:1"
             id="path1521" />
          <path
             d="m 156.1727,1012.0917 q 2.97362,0.041 5.14745,1.497 2.17383,1.4356 3.17871,4.0195 1.02539,2.584 0.73828,5.7422 l -0.041,0.4512 q -0.57422,5.1064 -3.79394,8.2441 -3.21972,3.1377 -7.95702,3.0557 -2.95312,-0.041 -5.10644,-1.4561 -2.15332,-1.4355 -3.19922,-3.999 -1.02539,-2.5635 -0.73828,-5.7011 0.5127,-5.4551 3.73242,-8.6953 3.24023,-3.2403 8.03906,-3.1582 z m -5.02442,11.8535 -0.0615,1.2099 q -0.28711,4.5733 2.78906,4.6553 3.97851,0.123 4.61425,-6.46 l 0.082,-1.8662 q 0.041,-1.8457 -0.69727,-2.9326 -0.71777,-1.1074 -2.13281,-1.1484 -1.86621,-0.062 -3.07617,1.5381 -1.18945,1.5791 -1.51758,5.0039 z"
             style="font-style:italic;font-weight:900;font-size:158.74px;line-height:85%;font-family:Roboto;-inkscape-font-specification:'Roboto Heavy Italic';text-align:start;letter-spacing:0px;word-spacing:0px;white-space:pre;fill:#ffffff;stroke:none;stroke-width:0.264583px;fill-opacity:1"
             id="path1523" />
          <path
             d="m 182.34064,1018.7567 q -1.08691,-0.1641 -2.0918,-0.2051 -3.03515,-0.082 -4.63476,2.0918 l -2.50195,14.0478 h -6.74706 l 3.85546,-22.1894 6.2959,-0.02 -0.5127,2.9121 q 2.17383,-3.3633 5.12695,-3.3633 0.84082,0 2.09179,0.2871 z"
             style="font-style:italic;font-weight:900;font-size:158.74px;line-height:85%;font-family:Roboto;-inkscape-font-specification:'Roboto Heavy Italic';text-align:start;letter-spacing:0px;word-spacing:0px;white-space:pre;fill:#ffffff;stroke:none;stroke-width:0.264583px;fill-opacity:1"
             id="path1525" />
          <path
             d="m 192.61504,1035.1014 q -2.97363,-0.021 -5.31152,-1.3945 -2.31738,-1.3946 -3.50683,-3.8555 -1.18945,-2.4814 -0.94336,-5.4551 l 0.0615,-0.5742 q 0.55371,-5.4756 3.79394,-8.6543 3.26074,-3.1992 7.97753,-3.0761 2.85058,0.041 4.88085,1.456 2.03028,1.3945 2.97363,3.876 0.94336,2.4609 0.61524,5.5371 l -0.38965,2.8095 h -13.20702 q 0.041,1.7432 0.98438,2.8301 0.94335,1.0869 2.74804,1.1485 2.93261,0.082 5.2705,-2.2559 l 2.83008,3.7529 q -1.25098,1.7842 -3.50683,2.8096 -2.23535,1.0049 -4.90137,1.0459 z m 1.64063,-17.6982 q -1.43555,-0.041 -2.50195,0.9023 -1.0459,0.9434 -1.8252,3.1582 h 6.74707 l 0.12304,-0.5947 q 0.12305,-0.7178 0.041,-1.3535 -0.34864,-2.0508 -2.58398,-2.1123 z"
             style="font-style:italic;font-weight:900;font-size:158.74px;line-height:85%;font-family:Roboto;-inkscape-font-specification:'Roboto Heavy Italic';text-align:start;letter-spacing:0px;word-spacing:0px;white-space:pre;fill:#ffffff;stroke:none;stroke-width:0.264583px;fill-opacity:1"
             id="path1527" />
          <path
             d="m 219.99294,1018.7567 q -1.08691,-0.1641 -2.09179,-0.2051 -3.03516,-0.082 -4.63476,2.0918 l -2.50195,14.0478 h -6.74707 l 3.85547,-22.1894 6.29589,-0.02 -0.51269,2.9121 q 2.17382,-3.3633 5.12694,-3.3633 0.84082,0 2.0918,0.2871 z"
             style="font-style:italic;font-weight:900;font-size:158.74px;line-height:85%;font-family:Roboto;-inkscape-font-specification:'Roboto Heavy Italic';text-align:start;letter-spacing:0px;word-spacing:0px;white-space:pre;fill:#ffffff;stroke:none;stroke-width:0.264583px;fill-opacity:1"
             id="path1529" />
        </g>
      </g>
    </g>
  </g>
</svg>
